<mxfile host="app.diagrams.net" agent="Mozilla/5.0 (Windows NT 10.0; Win64; x64) AppleWebKit/537.36 (KHTML, like Gecko) Chrome/128.0.0.0 Safari/537.36" version="24.7.7">
  <diagram id="C5RBs43oDa-KdzZeNtuy" name="Page-1">
    <mxGraphModel dx="3827" dy="2783" grid="1" gridSize="10" guides="1" tooltips="1" connect="1" arrows="1" fold="1" page="1" pageScale="1" pageWidth="827" pageHeight="1169" math="0" shadow="0">
      <root>
        <mxCell id="WIyWlLk6GJQsqaUBKTNV-0" />
        <mxCell id="WIyWlLk6GJQsqaUBKTNV-1" parent="WIyWlLk6GJQsqaUBKTNV-0" />
        <mxCell id="60q1w9pdsrjlK-V5Ri4q-0" value="maqolalar datasi" style="shape=cylinder3;whiteSpace=wrap;html=1;boundedLbl=1;backgroundOutline=1;size=15;" vertex="1" parent="WIyWlLk6GJQsqaUBKTNV-1">
          <mxGeometry x="200" y="120" width="80" height="120" as="geometry" />
        </mxCell>
        <mxCell id="60q1w9pdsrjlK-V5Ri4q-1" value="yozuvchilar datasi" style="shape=cylinder3;whiteSpace=wrap;html=1;boundedLbl=1;backgroundOutline=1;size=15;" vertex="1" parent="WIyWlLk6GJQsqaUBKTNV-1">
          <mxGeometry x="320" y="120" width="80" height="120" as="geometry" />
        </mxCell>
        <mxCell id="60q1w9pdsrjlK-V5Ri4q-3" value="malumotlar ustida ishlovchi server" style="whiteSpace=wrap;html=1;aspect=fixed;" vertex="1" parent="WIyWlLk6GJQsqaUBKTNV-1">
          <mxGeometry x="240" y="-80" width="120" height="120" as="geometry" />
        </mxCell>
        <mxCell id="60q1w9pdsrjlK-V5Ri4q-4" value="" style="endArrow=classic;html=1;rounded=0;entryX=0.5;entryY=1;entryDx=0;entryDy=0;" edge="1" parent="WIyWlLk6GJQsqaUBKTNV-1" target="60q1w9pdsrjlK-V5Ri4q-3">
          <mxGeometry width="50" height="50" relative="1" as="geometry">
            <mxPoint x="240" y="120" as="sourcePoint" />
            <mxPoint x="290" y="70" as="targetPoint" />
          </mxGeometry>
        </mxCell>
        <mxCell id="60q1w9pdsrjlK-V5Ri4q-5" value="" style="endArrow=classic;html=1;rounded=0;entryX=0.5;entryY=1;entryDx=0;entryDy=0;exitX=0.5;exitY=0;exitDx=0;exitDy=0;exitPerimeter=0;" edge="1" parent="WIyWlLk6GJQsqaUBKTNV-1" source="60q1w9pdsrjlK-V5Ri4q-1" target="60q1w9pdsrjlK-V5Ri4q-3">
          <mxGeometry width="50" height="50" relative="1" as="geometry">
            <mxPoint x="430" y="100" as="sourcePoint" />
            <mxPoint x="480" y="50" as="targetPoint" />
          </mxGeometry>
        </mxCell>
        <mxCell id="60q1w9pdsrjlK-V5Ri4q-6" value="admin" style="ellipse;whiteSpace=wrap;html=1;aspect=fixed;" vertex="1" parent="WIyWlLk6GJQsqaUBKTNV-1">
          <mxGeometry x="510" y="-60" width="80" height="80" as="geometry" />
        </mxCell>
        <mxCell id="60q1w9pdsrjlK-V5Ri4q-7" value="" style="endArrow=classic;html=1;rounded=0;entryX=1;entryY=0.5;entryDx=0;entryDy=0;exitX=0;exitY=0.5;exitDx=0;exitDy=0;" edge="1" parent="WIyWlLk6GJQsqaUBKTNV-1" source="60q1w9pdsrjlK-V5Ri4q-6" target="60q1w9pdsrjlK-V5Ri4q-3">
          <mxGeometry width="50" height="50" relative="1" as="geometry">
            <mxPoint x="400" y="30" as="sourcePoint" />
            <mxPoint x="450" y="-20" as="targetPoint" />
          </mxGeometry>
        </mxCell>
        <mxCell id="60q1w9pdsrjlK-V5Ri4q-11" value="views server" style="whiteSpace=wrap;html=1;aspect=fixed;" vertex="1" parent="WIyWlLk6GJQsqaUBKTNV-1">
          <mxGeometry x="240" y="-240" width="120" height="120" as="geometry" />
        </mxCell>
        <mxCell id="60q1w9pdsrjlK-V5Ri4q-14" value="" style="endArrow=classic;html=1;rounded=0;entryX=0.5;entryY=1;entryDx=0;entryDy=0;exitX=0.5;exitY=0;exitDx=0;exitDy=0;" edge="1" parent="WIyWlLk6GJQsqaUBKTNV-1" source="60q1w9pdsrjlK-V5Ri4q-3" target="60q1w9pdsrjlK-V5Ri4q-11">
          <mxGeometry width="50" height="50" relative="1" as="geometry">
            <mxPoint x="300" y="-90" as="sourcePoint" />
            <mxPoint x="340" y="-130" as="targetPoint" />
          </mxGeometry>
        </mxCell>
        <mxCell id="60q1w9pdsrjlK-V5Ri4q-15" value="" style="endArrow=classic;html=1;rounded=0;" edge="1" parent="WIyWlLk6GJQsqaUBKTNV-1">
          <mxGeometry width="50" height="50" relative="1" as="geometry">
            <mxPoint x="300" y="-240" as="sourcePoint" />
            <mxPoint x="300" y="-280" as="targetPoint" />
          </mxGeometry>
        </mxCell>
        <mxCell id="60q1w9pdsrjlK-V5Ri4q-16" value="" style="endArrow=classic;html=1;rounded=0;entryX=1;entryY=0.5;entryDx=0;entryDy=0;exitX=0;exitY=0;exitDx=0;exitDy=0;" edge="1" parent="WIyWlLk6GJQsqaUBKTNV-1" source="60q1w9pdsrjlK-V5Ri4q-6">
          <mxGeometry width="50" height="50" relative="1" as="geometry">
            <mxPoint x="550" as="sourcePoint" />
            <mxPoint x="360" y="-120" as="targetPoint" />
          </mxGeometry>
        </mxCell>
        <mxCell id="60q1w9pdsrjlK-V5Ri4q-18" value="" style="endArrow=classic;html=1;rounded=0;entryX=0;entryY=0.5;entryDx=0;entryDy=0;exitX=0;exitY=0.5;exitDx=0;exitDy=0;" edge="1" parent="WIyWlLk6GJQsqaUBKTNV-1" target="60q1w9pdsrjlK-V5Ri4q-3">
          <mxGeometry width="50" height="50" relative="1" as="geometry">
            <mxPoint x="240" y="-360.5" as="sourcePoint" />
            <mxPoint x="150" y="-250" as="targetPoint" />
            <Array as="points">
              <mxPoint x="80" y="-200" />
            </Array>
          </mxGeometry>
        </mxCell>
        <mxCell id="60q1w9pdsrjlK-V5Ri4q-19" value="admin server" style="whiteSpace=wrap;html=1;aspect=fixed;" vertex="1" parent="WIyWlLk6GJQsqaUBKTNV-1">
          <mxGeometry x="520" y="160" width="80" height="80" as="geometry" />
        </mxCell>
        <mxCell id="60q1w9pdsrjlK-V5Ri4q-20" value="" style="endArrow=classic;html=1;rounded=0;entryX=1;entryY=0;entryDx=0;entryDy=82.5;entryPerimeter=0;exitX=0;exitY=0.5;exitDx=0;exitDy=0;" edge="1" parent="WIyWlLk6GJQsqaUBKTNV-1" source="60q1w9pdsrjlK-V5Ri4q-19" target="60q1w9pdsrjlK-V5Ri4q-1">
          <mxGeometry width="50" height="50" relative="1" as="geometry">
            <mxPoint x="470" y="110" as="sourcePoint" />
            <mxPoint x="520" y="60" as="targetPoint" />
          </mxGeometry>
        </mxCell>
        <mxCell id="60q1w9pdsrjlK-V5Ri4q-21" value="" style="endArrow=classic;html=1;rounded=0;entryX=0.5;entryY=1;entryDx=0;entryDy=0;entryPerimeter=0;exitX=0.5;exitY=1;exitDx=0;exitDy=0;" edge="1" parent="WIyWlLk6GJQsqaUBKTNV-1" source="60q1w9pdsrjlK-V5Ri4q-19" target="60q1w9pdsrjlK-V5Ri4q-0">
          <mxGeometry width="50" height="50" relative="1" as="geometry">
            <mxPoint x="480" y="430" as="sourcePoint" />
            <mxPoint x="440" y="340" as="targetPoint" />
            <Array as="points">
              <mxPoint x="360" y="330" />
            </Array>
          </mxGeometry>
        </mxCell>
        <mxCell id="60q1w9pdsrjlK-V5Ri4q-22" value="" style="endArrow=classic;html=1;rounded=0;entryX=0.5;entryY=0;entryDx=0;entryDy=0;exitX=0.5;exitY=1;exitDx=0;exitDy=0;" edge="1" parent="WIyWlLk6GJQsqaUBKTNV-1" source="60q1w9pdsrjlK-V5Ri4q-6" target="60q1w9pdsrjlK-V5Ri4q-19">
          <mxGeometry width="50" height="50" relative="1" as="geometry">
            <mxPoint x="670" y="120" as="sourcePoint" />
            <mxPoint x="720" y="70" as="targetPoint" />
          </mxGeometry>
        </mxCell>
        <mxCell id="60q1w9pdsrjlK-V5Ri4q-23" value="yozuvchi" style="ellipse;whiteSpace=wrap;html=1;aspect=fixed;" vertex="1" parent="WIyWlLk6GJQsqaUBKTNV-1">
          <mxGeometry y="-30" width="80" height="80" as="geometry" />
        </mxCell>
        <mxCell id="60q1w9pdsrjlK-V5Ri4q-24" value="oddiy odam" style="ellipse;whiteSpace=wrap;html=1;aspect=fixed;" vertex="1" parent="WIyWlLk6GJQsqaUBKTNV-1">
          <mxGeometry x="260" y="-610" width="80" height="80" as="geometry" />
        </mxCell>
        <mxCell id="60q1w9pdsrjlK-V5Ri4q-25" value="" style="endArrow=classic;html=1;rounded=0;entryX=0.5;entryY=0;entryDx=0;entryDy=0;exitX=0.5;exitY=1;exitDx=0;exitDy=0;" edge="1" parent="WIyWlLk6GJQsqaUBKTNV-1" source="60q1w9pdsrjlK-V5Ri4q-24">
          <mxGeometry width="50" height="50" relative="1" as="geometry">
            <mxPoint x="450" y="-510" as="sourcePoint" />
            <mxPoint x="300" y="-441.0000000000002" as="targetPoint" />
          </mxGeometry>
        </mxCell>
        <mxCell id="60q1w9pdsrjlK-V5Ri4q-26" value="" style="endArrow=classic;html=1;rounded=0;exitX=1;exitY=1;exitDx=0;exitDy=0;entryX=0;entryY=0.5;entryDx=0;entryDy=0;entryPerimeter=0;" edge="1" parent="WIyWlLk6GJQsqaUBKTNV-1" source="60q1w9pdsrjlK-V5Ri4q-23" target="60q1w9pdsrjlK-V5Ri4q-0">
          <mxGeometry width="50" height="50" relative="1" as="geometry">
            <mxPoint x="60" y="290" as="sourcePoint" />
            <mxPoint x="110" y="240" as="targetPoint" />
          </mxGeometry>
        </mxCell>
        <mxCell id="60q1w9pdsrjlK-V5Ri4q-29" value="" style="endArrow=classic;html=1;rounded=0;entryX=1;entryY=0.5;entryDx=0;entryDy=0;exitX=0;exitY=1;exitDx=0;exitDy=0;" edge="1" parent="WIyWlLk6GJQsqaUBKTNV-1" source="60q1w9pdsrjlK-V5Ri4q-23" target="60q1w9pdsrjlK-V5Ri4q-30">
          <mxGeometry width="50" height="50" relative="1" as="geometry">
            <mxPoint y="-18" as="sourcePoint" />
            <mxPoint x="-62" y="-125" as="targetPoint" />
          </mxGeometry>
        </mxCell>
        <mxCell id="60q1w9pdsrjlK-V5Ri4q-30" value="yozuvchi sozlamalari" style="rounded=1;whiteSpace=wrap;html=1;" vertex="1" parent="WIyWlLk6GJQsqaUBKTNV-1">
          <mxGeometry x="-240" width="160" height="160" as="geometry" />
        </mxCell>
        <mxCell id="60q1w9pdsrjlK-V5Ri4q-31" value="" style="endArrow=classic;html=1;rounded=0;exitX=0;exitY=0.5;exitDx=0;exitDy=0;entryX=1;entryY=0;entryDx=0;entryDy=0;" edge="1" parent="WIyWlLk6GJQsqaUBKTNV-1" source="60q1w9pdsrjlK-V5Ri4q-11" target="60q1w9pdsrjlK-V5Ri4q-30">
          <mxGeometry width="50" height="50" relative="1" as="geometry">
            <mxPoint x="-30" y="-120" as="sourcePoint" />
            <mxPoint x="20" y="-170" as="targetPoint" />
          </mxGeometry>
        </mxCell>
        <mxCell id="60q1w9pdsrjlK-V5Ri4q-32" value="site" style="rounded=1;whiteSpace=wrap;html=1;" vertex="1" parent="WIyWlLk6GJQsqaUBKTNV-1">
          <mxGeometry x="240" y="-440" width="160" height="160" as="geometry" />
        </mxCell>
        <mxCell id="60q1w9pdsrjlK-V5Ri4q-33" value="yangi maqolalar" style="rounded=1;whiteSpace=wrap;html=1;" vertex="1" parent="WIyWlLk6GJQsqaUBKTNV-1">
          <mxGeometry x="440" y="-440" width="160" height="160" as="geometry" />
        </mxCell>
        <mxCell id="60q1w9pdsrjlK-V5Ri4q-35" value="eng ko&#39;p o&#39;qilgan maqolalar" style="rounded=1;whiteSpace=wrap;html=1;" vertex="1" parent="WIyWlLk6GJQsqaUBKTNV-1">
          <mxGeometry x="640" y="-440" width="160" height="160" as="geometry" />
        </mxCell>
        <mxCell id="60q1w9pdsrjlK-V5Ri4q-36" value="jahon" style="rounded=1;whiteSpace=wrap;html=1;" vertex="1" parent="WIyWlLk6GJQsqaUBKTNV-1">
          <mxGeometry x="840" y="-440" width="160" height="160" as="geometry" />
        </mxCell>
        <mxCell id="60q1w9pdsrjlK-V5Ri4q-37" value="o&#39;zbektiston" style="rounded=1;whiteSpace=wrap;html=1;" vertex="1" parent="WIyWlLk6GJQsqaUBKTNV-1">
          <mxGeometry x="1040" y="-440" width="160" height="160" as="geometry" />
        </mxCell>
        <mxCell id="60q1w9pdsrjlK-V5Ri4q-38" value="texnologiyalar" style="rounded=1;whiteSpace=wrap;html=1;" vertex="1" parent="WIyWlLk6GJQsqaUBKTNV-1">
          <mxGeometry x="1241" y="-440" width="160" height="160" as="geometry" />
        </mxCell>
        <mxCell id="60q1w9pdsrjlK-V5Ri4q-39" value="sport" style="rounded=1;whiteSpace=wrap;html=1;" vertex="1" parent="WIyWlLk6GJQsqaUBKTNV-1">
          <mxGeometry x="1640" y="-440" width="160" height="160" as="geometry" />
        </mxCell>
        <mxCell id="60q1w9pdsrjlK-V5Ri4q-40" value="madaniyat" style="rounded=1;whiteSpace=wrap;html=1;" vertex="1" parent="WIyWlLk6GJQsqaUBKTNV-1">
          <mxGeometry x="1440" y="-440" width="160" height="160" as="geometry" />
        </mxCell>
        <mxCell id="60q1w9pdsrjlK-V5Ri4q-46" value="malumotlarni saralovchi srver" style="whiteSpace=wrap;html=1;aspect=fixed;" vertex="1" parent="WIyWlLk6GJQsqaUBKTNV-1">
          <mxGeometry x="827" y="-150" width="120" height="120" as="geometry" />
        </mxCell>
        <mxCell id="60q1w9pdsrjlK-V5Ri4q-47" value="" style="endArrow=classic;html=1;rounded=0;exitX=1;exitY=0.5;exitDx=0;exitDy=0;entryX=0;entryY=0.5;entryDx=0;entryDy=0;" edge="1" parent="WIyWlLk6GJQsqaUBKTNV-1" source="60q1w9pdsrjlK-V5Ri4q-11" target="60q1w9pdsrjlK-V5Ri4q-46">
          <mxGeometry width="50" height="50" relative="1" as="geometry">
            <mxPoint x="550" y="-100" as="sourcePoint" />
            <mxPoint x="600" y="-150" as="targetPoint" />
          </mxGeometry>
        </mxCell>
        <mxCell id="60q1w9pdsrjlK-V5Ri4q-48" value="" style="endArrow=classic;html=1;rounded=0;exitX=0.5;exitY=0;exitDx=0;exitDy=0;entryX=0.5;entryY=1;entryDx=0;entryDy=0;" edge="1" parent="WIyWlLk6GJQsqaUBKTNV-1" source="60q1w9pdsrjlK-V5Ri4q-46" target="60q1w9pdsrjlK-V5Ri4q-39">
          <mxGeometry width="50" height="50" relative="1" as="geometry">
            <mxPoint x="940" y="-150" as="sourcePoint" />
            <mxPoint x="990" y="-200" as="targetPoint" />
          </mxGeometry>
        </mxCell>
        <mxCell id="60q1w9pdsrjlK-V5Ri4q-49" value="" style="endArrow=classic;html=1;rounded=0;entryX=0.5;entryY=1;entryDx=0;entryDy=0;" edge="1" parent="WIyWlLk6GJQsqaUBKTNV-1" target="60q1w9pdsrjlK-V5Ri4q-40">
          <mxGeometry width="50" height="50" relative="1" as="geometry">
            <mxPoint x="890" y="-150" as="sourcePoint" />
            <mxPoint x="940" y="-200" as="targetPoint" />
          </mxGeometry>
        </mxCell>
        <mxCell id="60q1w9pdsrjlK-V5Ri4q-50" value="" style="endArrow=classic;html=1;rounded=0;entryX=0.5;entryY=1;entryDx=0;entryDy=0;" edge="1" parent="WIyWlLk6GJQsqaUBKTNV-1" target="60q1w9pdsrjlK-V5Ri4q-38">
          <mxGeometry width="50" height="50" relative="1" as="geometry">
            <mxPoint x="890" y="-150" as="sourcePoint" />
            <mxPoint x="940" y="-200" as="targetPoint" />
          </mxGeometry>
        </mxCell>
        <mxCell id="60q1w9pdsrjlK-V5Ri4q-51" value="" style="endArrow=classic;html=1;rounded=0;entryX=0.5;entryY=1;entryDx=0;entryDy=0;" edge="1" parent="WIyWlLk6GJQsqaUBKTNV-1" target="60q1w9pdsrjlK-V5Ri4q-37">
          <mxGeometry width="50" height="50" relative="1" as="geometry">
            <mxPoint x="900" y="-150" as="sourcePoint" />
            <mxPoint x="930" y="-200" as="targetPoint" />
          </mxGeometry>
        </mxCell>
        <mxCell id="60q1w9pdsrjlK-V5Ri4q-52" value="" style="endArrow=classic;html=1;rounded=0;entryX=0.5;entryY=1;entryDx=0;entryDy=0;" edge="1" parent="WIyWlLk6GJQsqaUBKTNV-1" target="60q1w9pdsrjlK-V5Ri4q-36">
          <mxGeometry width="50" height="50" relative="1" as="geometry">
            <mxPoint x="890" y="-150" as="sourcePoint" />
            <mxPoint x="950" y="-200" as="targetPoint" />
          </mxGeometry>
        </mxCell>
        <mxCell id="60q1w9pdsrjlK-V5Ri4q-53" value="" style="endArrow=classic;html=1;rounded=0;exitX=0.5;exitY=0;exitDx=0;exitDy=0;entryX=0.5;entryY=1;entryDx=0;entryDy=0;" edge="1" parent="WIyWlLk6GJQsqaUBKTNV-1" source="60q1w9pdsrjlK-V5Ri4q-46" target="60q1w9pdsrjlK-V5Ri4q-35">
          <mxGeometry width="50" height="50" relative="1" as="geometry">
            <mxPoint x="770" y="-180" as="sourcePoint" />
            <mxPoint x="820" y="-230" as="targetPoint" />
          </mxGeometry>
        </mxCell>
        <mxCell id="60q1w9pdsrjlK-V5Ri4q-54" value="" style="endArrow=classic;html=1;rounded=0;exitX=0.5;exitY=0;exitDx=0;exitDy=0;entryX=0.5;entryY=1;entryDx=0;entryDy=0;" edge="1" parent="WIyWlLk6GJQsqaUBKTNV-1" source="60q1w9pdsrjlK-V5Ri4q-46" target="60q1w9pdsrjlK-V5Ri4q-33">
          <mxGeometry width="50" height="50" relative="1" as="geometry">
            <mxPoint x="550" y="-180" as="sourcePoint" />
            <mxPoint x="600" y="-230" as="targetPoint" />
          </mxGeometry>
        </mxCell>
        <mxCell id="60q1w9pdsrjlK-V5Ri4q-55" value="" style="endArrow=classic;html=1;rounded=0;exitX=1;exitY=0.5;exitDx=0;exitDy=0;entryX=0;entryY=0.5;entryDx=0;entryDy=0;" edge="1" parent="WIyWlLk6GJQsqaUBKTNV-1" source="60q1w9pdsrjlK-V5Ri4q-6" target="60q1w9pdsrjlK-V5Ri4q-46">
          <mxGeometry width="50" height="50" relative="1" as="geometry">
            <mxPoint x="800" y="90" as="sourcePoint" />
            <mxPoint x="850" y="40" as="targetPoint" />
          </mxGeometry>
        </mxCell>
        <mxCell id="60q1w9pdsrjlK-V5Ri4q-56" value="" style="endArrow=classic;html=1;rounded=0;entryX=0.5;entryY=0;entryDx=0;entryDy=0;exitX=1;exitY=0.5;exitDx=0;exitDy=0;" edge="1" parent="WIyWlLk6GJQsqaUBKTNV-1" source="60q1w9pdsrjlK-V5Ri4q-24" target="60q1w9pdsrjlK-V5Ri4q-33">
          <mxGeometry width="50" height="50" relative="1" as="geometry">
            <mxPoint x="470" y="-560" as="sourcePoint" />
            <mxPoint x="520" y="-610" as="targetPoint" />
          </mxGeometry>
        </mxCell>
        <mxCell id="60q1w9pdsrjlK-V5Ri4q-57" value="" style="endArrow=classic;html=1;rounded=0;entryX=0.5;entryY=0;entryDx=0;entryDy=0;exitX=1;exitY=0.5;exitDx=0;exitDy=0;" edge="1" parent="WIyWlLk6GJQsqaUBKTNV-1" source="60q1w9pdsrjlK-V5Ri4q-24" target="60q1w9pdsrjlK-V5Ri4q-39">
          <mxGeometry width="50" height="50" relative="1" as="geometry">
            <mxPoint x="1540" y="-610" as="sourcePoint" />
            <mxPoint x="1720" y="-480" as="targetPoint" />
          </mxGeometry>
        </mxCell>
        <mxCell id="60q1w9pdsrjlK-V5Ri4q-58" value="" style="endArrow=classic;html=1;rounded=0;exitX=1;exitY=0.5;exitDx=0;exitDy=0;" edge="1" parent="WIyWlLk6GJQsqaUBKTNV-1" source="60q1w9pdsrjlK-V5Ri4q-24">
          <mxGeometry width="50" height="50" relative="1" as="geometry">
            <mxPoint x="1350" y="-570" as="sourcePoint" />
            <mxPoint x="1520" y="-440" as="targetPoint" />
          </mxGeometry>
        </mxCell>
        <mxCell id="60q1w9pdsrjlK-V5Ri4q-59" value="" style="endArrow=classic;html=1;rounded=0;entryX=0.5;entryY=0;entryDx=0;entryDy=0;exitX=1;exitY=0.5;exitDx=0;exitDy=0;" edge="1" parent="WIyWlLk6GJQsqaUBKTNV-1" source="60q1w9pdsrjlK-V5Ri4q-24">
          <mxGeometry width="50" height="50" relative="1" as="geometry">
            <mxPoint x="1140" y="-570" as="sourcePoint" />
            <mxPoint x="1320" y="-440" as="targetPoint" />
          </mxGeometry>
        </mxCell>
        <mxCell id="60q1w9pdsrjlK-V5Ri4q-60" value="" style="endArrow=classic;html=1;rounded=0;entryX=0.5;entryY=0;entryDx=0;entryDy=0;" edge="1" parent="WIyWlLk6GJQsqaUBKTNV-1">
          <mxGeometry width="50" height="50" relative="1" as="geometry">
            <mxPoint x="340" y="-570" as="sourcePoint" />
            <mxPoint x="1127" y="-440" as="targetPoint" />
          </mxGeometry>
        </mxCell>
        <mxCell id="60q1w9pdsrjlK-V5Ri4q-61" value="" style="endArrow=classic;html=1;rounded=0;entryX=0.5;entryY=0;entryDx=0;entryDy=0;exitX=1;exitY=0.5;exitDx=0;exitDy=0;" edge="1" parent="WIyWlLk6GJQsqaUBKTNV-1" source="60q1w9pdsrjlK-V5Ri4q-24" target="60q1w9pdsrjlK-V5Ri4q-36">
          <mxGeometry width="50" height="50" relative="1" as="geometry">
            <mxPoint x="350" y="-560" as="sourcePoint" />
            <mxPoint x="1137" y="-430" as="targetPoint" />
          </mxGeometry>
        </mxCell>
        <mxCell id="60q1w9pdsrjlK-V5Ri4q-62" value="" style="endArrow=classic;html=1;rounded=0;entryX=0.5;entryY=0;entryDx=0;entryDy=0;exitX=1;exitY=0.5;exitDx=0;exitDy=0;" edge="1" parent="WIyWlLk6GJQsqaUBKTNV-1" source="60q1w9pdsrjlK-V5Ri4q-24" target="60q1w9pdsrjlK-V5Ri4q-35">
          <mxGeometry width="50" height="50" relative="1" as="geometry">
            <mxPoint x="470" y="-690" as="sourcePoint" />
            <mxPoint x="520" y="-740" as="targetPoint" />
          </mxGeometry>
        </mxCell>
      </root>
    </mxGraphModel>
  </diagram>
</mxfile>
